<svg id="visual" viewBox="0 0 960 540" width="960" height="540" xmlns="http://www.w3.org/2000/svg" xmlns:xlink="http://www.w3.org/1999/xlink" version="1.1"><rect x="0" y="0" width="960" height="540" fill="#cad2de"></rect><g transform="translate(504.81931910024616 246.21127227542024)"><path d="M166.5 -265.7C233.3 -249.8 317.1 -240.6 347.6 -197.5C378 -154.3 355 -77.2 343 -6.9C331 63.3 330.1 126.7 296.6 164.6C263.2 202.6 197.4 215.2 142.5 255.7C87.7 296.2 43.8 364.6 12.1 343.7C-19.7 322.8 -39.4 212.5 -107.6 179.7C-175.8 147 -292.5 191.6 -355.6 174.6C-418.8 157.5 -428.4 78.8 -388.3 23.1C-348.3 -32.5 -258.6 -65 -207.6 -103.1C-156.6 -141.2 -144.3 -184.9 -116.1 -223.2C-88 -261.4 -44 -294.2 2.9 -299.3C49.8 -304.3 99.7 -281.6 166.5 -265.7" fill="#FDEAD8"></path></g></svg>