<svg id="visual" viewBox="0 0 960 540" width="960" height="540" xmlns="http://www.w3.org/2000/svg" xmlns:xlink="http://www.w3.org/1999/xlink" version="1.1"><rect x="0" y="0" width="960" height="540" fill="#cad2de"></rect><g transform="translate(526.834105962086 236.55156198987783)"><path d="M107.3 -162.6C165.9 -152 258.7 -177.5 274.9 -156.4C291.1 -135.3 230.5 -67.7 192.9 -21.8C155.2 24.2 140.4 48.3 146.7 108.4C153 168.4 180.5 264.3 159.6 280.6C138.7 296.8 69.3 233.4 4.1 226.3C-61.2 219.3 -122.3 268.6 -190.5 279.6C-258.7 290.6 -334 263.4 -359.5 210.5C-385.1 157.5 -361.1 78.8 -360 0.6C-358.9 -77.5 -380.8 -155 -334.5 -172.1C-288.2 -189.1 -173.6 -145.7 -106.5 -151.5C-39.4 -157.2 -19.7 -212.1 2.3 -216.1C24.3 -220.1 48.7 -173.3 107.3 -162.6" fill="#FDEAD8"></path></g></svg>