<svg id="visual" viewBox="0 0 960 540" width="960" height="540" xmlns="http://www.w3.org/2000/svg" xmlns:xlink="http://www.w3.org/1999/xlink" version="1.1"><rect x="0" y="0" width="960" height="540" fill="#cad2de"></rect><g transform="translate(442.35841479528574 297.140755635228)"><path d="M109.6 -173.5C146.6 -168.5 184.1 -148.3 244.7 -116.8C305.3 -85.3 388.9 -42.7 394.8 3.4C400.7 49.5 329 99 265.7 125.8C202.5 152.7 147.7 156.9 104.9 151.8C62 146.8 31 132.5 -13 155C-57 177.5 -114 236.8 -153.5 240C-193.1 243.1 -215.2 190.1 -244.5 140.7C-273.9 91.3 -310.4 45.7 -318.2 -4.5C-326 -54.7 -305 -109.3 -282 -169.5C-258.9 -229.7 -233.7 -295.4 -186.3 -294.4C-139 -293.4 -69.5 -225.7 -16.6 -197C36.3 -168.3 72.7 -178.5 109.6 -173.5" fill="#FDEAD8"></path></g></svg>