<svg id="visual" viewBox="0 0 960 540" width="960" height="540" xmlns="http://www.w3.org/2000/svg" xmlns:xlink="http://www.w3.org/1999/xlink" version="1.1"><rect x="0" y="0" width="960" height="540" fill="#cad2de"></rect><g transform="translate(435.66841172889724 252.74790879615824)"><path d="M91.2 -163.6C143 -128 227 -153.8 295.9 -136.7C364.8 -119.7 418.6 -59.8 420.7 1.2C422.7 62.2 372.9 124.3 332.4 190.7C292 257.1 261 327.7 207.2 347.5C153.3 367.2 76.7 336.1 22.7 296.9C-31.3 257.6 -62.7 210.2 -122 193.6C-181.3 177 -268.6 191.3 -304.6 164.1C-340.6 137 -325.3 68.5 -326.3 -0.6C-327.3 -69.7 -344.7 -139.3 -313.9 -175.6C-283.2 -211.8 -204.3 -214.6 -144 -245.2C-83.7 -275.9 -41.8 -334.5 -11.1 -315.3C19.7 -296.1 39.4 -199.2 91.2 -163.6" fill="#FDEAD8"></path></g></svg>