<svg id="visual" viewBox="0 0 960 540" width="960" height="540" xmlns="http://www.w3.org/2000/svg" xmlns:xlink="http://www.w3.org/1999/xlink" version="1.1"><rect x="0" y="0" width="960" height="540" fill="#cad2de"></rect><g transform="translate(402.9571838948861 267.8052163416439)"><path d="M203.4 -318.3C262.2 -318.4 307.3 -261 341.3 -198.3C375.3 -135.7 398.2 -67.8 374.2 -13.8C350.2 40.2 279.5 80.3 219.2 97.5C159 114.7 109.2 108.9 74.5 161.6C39.7 214.4 19.8 325.7 -5.1 334.5C-30 343.3 -60 249.6 -96.4 197.8C-132.7 145.9 -175.5 136 -180.2 110C-184.9 84 -151.5 42 -154.7 -1.8C-157.9 -45.7 -197.6 -91.3 -217.3 -159.5C-236.9 -227.7 -236.6 -318.5 -197 -329.5C-157.5 -340.5 -78.8 -271.7 -3.2 -266.2C72.3 -260.6 144.7 -318.2 203.4 -318.3" fill="#FDEAD8"></path></g></svg>